<?xml version="1.0" encoding="utf-8"?>
<svg viewBox="0 0 500 500" xmlns="http://www.w3.org/2000/svg" xmlns:xlink="http://www.w3.org/1999/xlink" xmlns:bx="https://boxy-svg.com">
  <defs>
    <linearGradient id="gradient-0-0" gradientUnits="userSpaceOnUse" x1="50.001" y1="22.189" x2="50.001" y2="41.122" xlink:href="#gradient-0"/>
    <linearGradient id="gradient-0" bx:pinned="true">
      <stop offset="0" style="stop-color: rgb(255, 208, 0);"/>
      <stop offset="0.25" style="stop-color: rgba(255, 254, 250, 0);"/>
      <stop offset="0.5" style="stop-color: rgb(255, 208, 0);"/>
      <stop offset="0.75" style="stop-color: rgba(255, 254, 250, 0);"/>
      <stop offset="1" style="stop-color: rgb(255, 208, 0);"/>
    </linearGradient>
    <radialGradient gradientUnits="userSpaceOnUse" cx="28.37" cy="71.817" r="10.771" id="gradient-0-3" xlink:href="#gradient-0"/>
    <radialGradient gradientUnits="userSpaceOnUse" cx="71.482" cy="71.715" r="10.917" id="gradient-0-4" xlink:href="#gradient-0"/>
  </defs>
  <g transform="matrix(1, 0, 0, 1, -1, -30)">
    <path d="M 496 140.399 L 496 420.83 C 495.977 449.596 484.33 475.704 465.518 494.518 C 446.704 513.33 420.595 524.977 391.829 525 L 111.399 525 C 82.628 524.978 56.215 513.332 37.095 494.521 C 17.977 475.708 6.024 449.598 6 420.83 L 6 140.399 C 6.023 111.626 17.975 85.21 37.092 66.092 C 56.21 46.975 82.626 35.023 111.399 35 L 391.829 35 C 420.597 35.024 446.708 46.977 465.521 66.095 C 484.332 85.215 495.978 111.628 496 140.399 Z M 464.787 66.818 C 446.101 47.828 420.383 36.005 391.829 36.029 L 111.399 36.029 C 82.839 36.006 56.81 47.83 37.821 66.821 C 18.83 85.81 7.006 111.839 7.029 140.399 L 7.029 420.83 C 7.005 449.383 18.828 475.101 37.818 493.787 C 56.806 512.472 82.837 523.993 111.399 523.971 L 391.829 523.971 C 420.385 523.994 446.104 512.474 464.79 493.79 C 483.474 475.105 494.994 449.385 494.971 420.83 L 494.971 140.399 C 494.993 111.837 483.472 85.806 464.787 66.818 Z" style="fill: none; stroke: rgb(0, 0, 0); stroke-width: 10px;">
      <title>Square</title>
    </path>
    <g transform="matrix(-2.762959, 0, 0, 2.762959, 462.742065, 131.559814)" style="">
      <title>Fog</title>
      <path d="M43.3,68.9H20c-6.3,0-11.5-5.2-11.5-11.5S13.6,45.9,20,45.9c0.1,0,0.3,0,0.4,0c0.3,0,0.6-0.1,0.8-0.3s0.3-0.5,0.3-0.8   c0-0.3,0-0.7,0-1c0-8,6.5-14.5,14.5-14.5c5.7,0,10.9,3.3,13.2,8.5c0.2,0.5,0.8,0.7,1.2,0.5c0.9-0.3,1.8-0.5,2.8-0.5   c4.1,0,7.7,3.1,8.3,7.2c0.1,0.4,0.4,0.8,0.9,0.9c5.7,0.8,10,5.7,10,11.5c0,0.6,0.4,1,1,1s1-0.4,1-1c0-6.5-4.7-12.1-11-13.3   c-1-4.7-5.2-8.1-10.1-8.1c-0.9,0-1.7,0.1-2.6,0.3c-2.8-5.4-8.5-8.9-14.7-8.9c-9.1,0-16.5,7.4-16.5,16.5c0,0,0,0,0,0.1   c-7.2,0.3-12.9,6.2-12.9,13.5c0,7.4,6.1,13.5,13.5,13.5h23.3c0.6,0,1-0.4,1-1S43.9,68.9,43.3,68.9z"/>
      <path d="M54.3,60.9c0,0.6,0.4,1,1,1h29.9c0.6,0,1-0.4,1-1s-0.4-1-1-1H55.3C54.7,59.9,54.3,60.4,54.3,60.9z"/>
      <path d="M47.3,66.5c-0.6,0-1,0.4-1,1s0.4,1,1,1h25.9c0.6,0,1-0.4,1-1s-0.4-1-1-1H47.3z"/>
      <path d="M92.5,66.5H80.8c-0.6,0-1,0.4-1,1s0.4,1,1,1h11.8c0.6,0,1-0.4,1-1S93.1,66.5,92.5,66.5z"/>
      <path d="M89.2,71.4h-34c-0.6,0-1,0.4-1,1s0.4,1,1,1h34c0.6,0,1-0.4,1-1S89.8,71.4,89.2,71.4z"/>
      <path d="M79.9,77.5H46.2c-0.6,0-1,0.4-1,1s0.4,1,1,1h33.7c0.6,0,1-0.4,1-1S80.5,77.5,79.9,77.5z"/>
    </g>
    <g transform="matrix(0.974028, 0, 0, 0.974028, 0.858343, -697.533142)" style="">
      <title>Future</title>
      <path style="font: medium Sans; text-indent: 0px; text-align: start; text-decoration: none; letter-spacing: normal; word-spacing: normal; text-transform: none; direction: ltr; writing-mode: lr-tb; text-anchor: start; baseline-shift: baseline; opacity: 1; color: rgb(0, 0, 0); fill: rgb(0, 0, 0); fill-opacity: 1; marker: none; visibility: visible; display: inline; overflow: visible; vector-effect: non-scaling-stroke; stroke: rgb(0, 0, 0); stroke-width: 2px;" d="M 345.17 1013.26 L 346.772 1018.873 C 346.897 1019.331 347.308 1019.653 347.783 1019.666 C 348.521 1019.696 349.07 1018.992 348.862 1018.283 L 346.535 1010.123 C 346.372 1009.551 345.776 1009.219 345.204 1009.381 L 337.06 1011.708 C 336.651 1011.805 336.335 1012.13 336.251 1012.543 C 336.084 1013.356 336.862 1014.045 337.65 1013.782 L 343.316 1012.163 C 339.641 1018.559 332.685 1023.308 324.819 1023.308 C 313.068 1023.308 303.576 1013.895 303.576 1002.267 C 303.576 990.638 313.068 981.226 324.819 981.226 L 325.157 981.226 C 325.553 981.231 325.921 981.019 326.114 980.672 C 326.52 979.947 325.988 979.056 325.157 979.067 L 324.819 979.067 C 311.912 979.067 301.418 989.461 301.418 1002.267 C 301.418 1015.072 311.912 1025.466 324.819 1025.466 C 333.535 1025.466 341.133 1020.269 345.17 1013.26 Z M 325.663 1016.834 L 325.663 1001.154 L 336.116 995.286 C 336.557 995.104 336.825 994.653 336.777 994.179 C 336.692 993.353 335.743 992.928 335.07 993.415 L 324.045 999.586 C 323.707 999.78 323.501 1000.141 323.505 1000.53 L 323.505 1016.834 C 323.5 1017.38 323.906 1017.844 324.449 1017.913 C 325.096 1017.994 325.668 1017.486 325.663 1016.834 Z M 347.648 1004.323 C 347.773 1002.894 347.763 1001.435 347.614 999.957 C 347.609 999.506 347.325 999.106 346.901 998.953 C 346.12 998.671 345.326 999.342 345.473 1000.159 C 345.608 1001.503 345.603 1002.841 345.49 1004.138 C 345.431 1004.735 345.87 1005.265 346.468 1005.318 C 347.071 1005.376 347.603 1004.927 347.648 1004.323 Z M 346.418 994.561 C 345.696 992.516 344.679 990.54 343.349 988.695 C 343.122 988.381 342.747 988.212 342.363 988.251 C 341.535 988.335 341.108 989.284 341.596 989.959 C 342.805 991.637 343.741 993.415 344.394 995.27 C 344.527 995.68 344.892 995.972 345.321 996.012 C 346.106 996.072 346.69 995.3 346.418 994.561 Z" transform="matrix(-1, 0, 0, -1, 650.324463, 2004.532837)"/>
    </g>
    <g transform="matrix(5.488708, 0, 0, 5.488708, 255.559631, -1410.814941)" style="">
      <title>Bolt</title>
      <path style="color: rgb(0, 0, 0); font: medium sans-serif; font-feature-settings: normal; text-indent: 0px; text-align: start; text-decoration: none solid rgb(0, 0, 0); letter-spacing: normal; word-spacing: normal; text-transform: none; writing-mode: lr-tb; direction: ltr; text-orientation: mixed; dominant-baseline: auto; baseline-shift: baseline; text-anchor: start; white-space: normal; clip-rule: nonzero; display: inline; overflow: visible; visibility: visible; opacity: 1; isolation: auto; mix-blend-mode: normal; color-interpolation: srgb; color-interpolation-filters: linearrgb; vector-effect: none; fill: rgb(0, 0, 0); fill-opacity: 1; fill-rule: nonzero; stroke-linecap: butt; stroke-linejoin: round; stroke-miterlimit: 4; stroke-dasharray: none; stroke-dashoffset: 0; stroke-opacity: 1; color-rendering: auto; image-rendering: auto; shape-rendering: auto; text-rendering: auto; stroke-width: 0.182192px;" d="M 6.816 284.147 C 6.632 284.148 6.472 284.27 6.421 284.446 L 4.778 290.197 C 4.703 290.459 4.9 290.72 5.172 290.72 L 6.271 290.72 L 4.778 295.948 C 4.692 296.253 4.969 296.535 5.275 296.457 C 5.373 296.432 5.458 296.372 5.515 296.288 L 10.444 288.895 C 10.62 288.632 10.446 288.277 10.131 288.256 C 10.121 288.255 10.112 288.255 10.103 288.255 L 8.602 288.255 L 9.674 284.677 C 9.753 284.413 9.556 284.148 9.281 284.147 Z M 7.127 284.969 L 8.728 284.969 L 7.654 288.548 C 7.575 288.811 7.773 289.077 8.048 289.077 L 9.334 289.077 L 6.291 293.642 L 7.211 290.422 C 7.286 290.159 7.089 289.898 6.816 289.898 L 5.718 289.898 Z"/>
    </g>
    <g transform="matrix(1.921665, 0, 0, 1.921665, -422.053741, -214.637527)" bx:origin="0.5 0.489436">
      <title>Clock tower</title>
      <path d="M 341.602 264.504 L 341.602 250.984 C 341.603 249.88 342.498 248.986 343.602 248.984 L 357.602 248.984 C 357.634 248.984 357.666 248.985 357.698 248.986 C 357.102 249.631 356.639 250.265 356.13 250.984 L 351.602 250.984 L 351.602 255.984 L 353.524 255.984 C 353.288 256.646 353.082 257.322 352.913 257.984 L 351.602 257.984 L 351.602 263.984 L 352.295 263.984 C 352.323 264.65 352.382 265.319 352.477 265.984 L 342.953 265.984 L 341.508 267.14 C 341.058 267.18 340.584 267.213 340.05 267.229 C 339.496 267.246 338.857 267.247 338.182 267.239 Z M 325.602 245.551 L 321.087 242.842 C 321.063 242.827 321.04 242.812 321.017 242.795 C 320.393 242.345 320.49 241.387 321.193 241.072 L 340.602 232.371 L 340.602 220.984 L 339.602 220.984 C 339.393 220.984 339.19 220.919 339.02 220.798 C 338.394 220.35 338.487 219.393 339.188 219.074 L 350.188 214.074 C 350.451 213.954 350.753 213.954 351.016 214.074 L 362.016 219.074 C 362.206 219.16 362.364 219.304 362.469 219.485 C 362.853 220.151 362.372 220.985 361.602 220.984 L 360.602 220.984 L 360.602 232.371 L 370.356 236.744 C 370.064 237.204 369.803 237.672 369.596 238.129 C 369.538 238.258 369.482 238.388 369.428 238.52 L 350.602 230.08 L 323.76 242.113 L 326.684 243.867 L 350.217 234.061 C 350.464 233.959 350.741 233.959 350.987 234.061 L 368.639 241.416 C 368.571 241.854 368.525 242.292 368.499 242.723 C 368.067 242.816 367.655 242.915 367.277 243.015 L 350.602 236.068 L 327.602 245.651 L 327.602 264.859 C 327.592 264.856 327.582 264.853 327.571 264.85 C 327.568 264.897 327.561 264.941 327.552 264.981 C 327.504 265.193 327.374 265.395 327.188 265.513 C 326.975 265.648 326.547 265.734 326.293 265.681 C 326.061 265.632 325.831 265.44 325.705 265.261 C 325.585 265.091 325.505 264.863 325.537 264.645 C 325.546 264.585 325.569 264.516 325.602 264.444 Z M 344.218 218.984 L 356.986 218.984 L 350.602 216.083 Z M 342.602 231.474 L 345.104 230.353 C 343.486 226.65 345.917 222.438 349.934 221.988 C 354.524 221.473 357.95 226.12 356.1 230.353 L 358.602 231.474 L 358.602 220.984 L 342.602 220.984 Z M 350.193 228.072 C 350.453 227.955 350.751 227.955 351.011 228.072 L 354.278 229.536 C 355.331 227.081 353.728 224.303 351.075 223.988 C 348.017 223.624 345.712 226.706 346.926 229.536 Z M 349.602 263.984 L 349.602 257.984 L 343.602 257.984 L 343.602 263.984 Z M 349.602 250.984 L 343.602 250.984 L 343.602 255.984 L 349.602 255.984 Z"/>
      <path d="M 337.602 258.984 C 338.706 258.983 339.601 258.088 339.602 256.984 L 339.602 250.984 C 339.601 249.88 338.706 248.986 337.602 248.984 L 331.602 248.984 C 330.498 248.986 329.603 249.88 329.602 250.984 L 329.602 256.984 C 329.603 258.088 330.498 258.983 331.602 258.984 Z M 331.602 250.984 L 337.602 250.984 L 337.603 256.984 L 331.602 256.984 Z"/>
      <path d="M 344.602 244.984 C 343.832 244.984 343.351 245.818 343.736 246.484 C 343.915 246.794 344.245 246.984 344.602 246.984 L 358.602 246.984 C 359.372 246.984 359.853 246.151 359.468 245.484 C 359.289 245.175 358.959 244.984 358.602 244.984 L 353.602 244.984 L 353.602 242.984 L 354.602 242.984 C 355.372 242.984 355.853 242.151 355.468 241.484 C 355.289 241.175 354.959 240.984 354.602 240.984 L 344.602 240.984 C 343.832 240.984 343.351 241.818 343.736 242.484 C 343.915 242.794 344.245 242.984 344.602 242.984 L 351.602 242.984 L 351.602 244.984 Z"/>
    </g>
    <g transform="matrix(0.599697, 0, 0, -0.599697, 168.76506, 339.715973)" style="">
      <title>Instersection - Small</title>
      <path d="M50.184,22.196c0.06,0.009 0.121,0.015 0.181,0.027c0.48,0.095 0.917,0.387 1.189,0.794c0.17,0.254 0.276,0.55 0.306,0.855c0.006,0.061 0.006,0.122 0.009,0.183l0,35.259c-0.008,0.163 -0.004,0.204 -0.036,0.365c-0.131,0.657 -0.64,1.225 -1.29,1.423c-0.701,0.212 -1.513,-0.026 -1.986,-0.603c-0.233,-0.283 -0.379,-0.636 -0.415,-1.002c-0.006,-0.061 -0.006,-0.122 -0.009,-0.183l0,-35.259c0.003,-0.061 0.003,-0.122 0.009,-0.183c0.054,-0.546 0.361,-1.063 0.821,-1.37c0.254,-0.17 0.55,-0.276 0.855,-0.306c0.121,-0.012 0.244,-0.006 0.366,0Z" style="stroke-miterlimit: 8; stroke: rgb(0, 0, 0); stroke-width: 3.33502px;"/>
      <path d="M50.123,57.45c0.061,0.007 0.122,0.011 0.182,0.021c0.723,0.12 1.345,0.692 1.515,1.419c0.152,0.654 -0.077,1.38 -0.588,1.829c-0.122,0.107 -0.161,0.125 -0.297,0.213l-30.536,17.629c-0.054,0.028 -0.107,0.059 -0.163,0.084c-0.667,0.302 -1.503,0.172 -2.047,-0.338c-0.491,-0.459 -0.704,-1.19 -0.528,-1.847c0.095,-0.354 0.297,-0.679 0.573,-0.921c0.123,-0.107 0.161,-0.125 0.297,-0.213l30.536,-17.629c0.145,-0.075 0.179,-0.099 0.333,-0.152c0.116,-0.039 0.236,-0.067 0.357,-0.083c0.121,-0.016 0.244,-0.014 0.366,-0.012Z" style="stroke-miterlimit: 8; stroke: rgb(0, 0, 0); stroke-width: 3.33502px;"/>
      <path d="M50.245,57.462c0.16,0.029 0.202,0.031 0.356,0.083c0.155,0.053 0.189,0.077 0.334,0.152l30.535,17.629c0.137,0.088 0.175,0.106 0.298,0.213c0.549,0.482 0.777,1.299 0.537,2.005c-0.196,0.579 -0.695,1.046 -1.285,1.204c-0.413,0.111 -0.864,0.074 -1.255,-0.103c-0.055,-0.025 -0.108,-0.056 -0.163,-0.084l-30.535,-17.629c-0.052,-0.033 -0.105,-0.064 -0.154,-0.099c-0.498,-0.357 -0.799,-0.969 -0.779,-1.58c0.024,-0.73 0.511,-1.424 1.209,-1.687c0.114,-0.043 0.233,-0.075 0.353,-0.095c0.162,-0.026 0.203,-0.021 0.366,-0.024c0.061,0.005 0.122,0.01 0.183,0.015Z" style="stroke-miterlimit: 8; stroke: rgb(0, 0, 0); stroke-width: 3.33502px;"/>
    </g>
    <g transform="matrix(-1.479636, 0, 0, 1.479636, 201.239105, 220.181976)" style="">
      <title>Fast car</title>
      <path d="M83.654,59h10.103l3.357-8.038c0.742-1.777,0.444-3.782-0.817-5.501c-1.169-1.592-2.906-2.468-4.893-2.468H80.189   l-7.312-8.381C71.387,32.904,69.401,32,67.137,32H34.193c-1.767,0-3.368,0.722-4.509,2H17.5v3h10.08l-3.741,5.525h-2.013   l-4.512,8.297c-0.779,1.433-0.742,3.054,0.103,4.451c0.84,1.387,2.257,2.184,3.888,2.184h6.293   c-0.02,0.232-0.036,0.467-0.036,0.705c0,2.832,1.424,5.334,3.591,6.838H17.5v3h71.001v-3h-8.395   C82.057,63.646,83.405,61.484,83.654,59z M70.409,56.311c0.053-0.131,0.1-0.268,0.164-0.395c0.033-0.072,0.076-0.139,0.113-0.207   c0.911-1.617,2.654-2.697,4.645-2.697c2.717,0,4.989,2.002,5.286,4.656l0.068,0.607c-0.062,2.881-2.413,5.207-5.308,5.207   c-2.934,0-5.32-2.387-5.32-5.32C70.058,57.51,70.192,56.891,70.409,56.311z M31.653,36.336C32.245,35.462,33.124,35,34.193,35   h23.308V43H27.142L31.653,36.336z M21.305,54.457c-0.572,0-1.029-0.256-1.321-0.736c-0.166-0.275-0.229-0.563-0.209-0.85h4.741v-3   h-3.27L23.353,46h43.217v-3h-6.068V35h6.636c1.392,0,2.563,0.533,3.481,1.585l8.207,9.408h12.579c1.021,0,1.877,0.43,2.475,1.243   c0.366,0.499,0.915,1.497,0.468,2.569L94.266,50h-5.765v3h4.512l-1.254,3h-8.357c-0.955-3.539-4.186-6.156-8.023-6.156   c-3.322,0-6.188,1.962-7.521,4.783c-0.032,0.064-0.063,0.129-0.094,0.195c-0.031,0.07-0.062,0.141-0.091,0.213   c-0.133,0.313-0.254,0.633-0.349,0.965H43.905c-0.955-3.539-4.186-6.156-8.023-6.156c-3.256,0-6.071,1.882-7.438,4.613H21.305z    M30.935,56.244c0.059-0.139,0.118-0.279,0.188-0.412c0.03-0.059,0.063-0.117,0.095-0.176c0.936-1.609,2.691-2.645,4.617-2.645   c2.717,0,4.99,2.002,5.287,4.656l0.067,0.605c-0.062,2.881-2.413,5.209-5.308,5.209c-2.934,0-5.32-2.387-5.32-5.32   C30.562,57.484,30.702,56.842,30.935,56.244z M44.158,59h22.942c0.249,2.484,1.598,4.646,3.548,6H40.61   C42.561,63.646,43.909,61.484,44.158,59z"/>
      <rect x="5.501" y="64.998" width="10" height="3"/>
      <rect x="90.494" y="64.998" width="8.007" height="3"/>
      <rect x="1.5" y="47" width="14.001" height="3" style="visibility: hidden;"/>
      <rect x="12.5" y="34" width="3.03" height="3"/>
    </g>
    <g transform="matrix(1.144668, 0, 0, 1.144668, 163.917786, -11.21286)" style="">
      <title>Dog &amp; Scientist</title>
      <g transform="matrix(0.566948, 0, 0, 0.566948, 151.630615, 251.92482)" style="">
        <title>Dog</title>
        <g>
          <path d="M50.6794968,44.9665794c-0.1289063-0.5371094-0.6689453-0.8647461-1.2050781-0.7397461    c-0.5371094,0.1289063-0.8691406,0.668457-0.7402344,1.2055664c0.8691406,3.6308594,0.5917969,6.3134766-0.8261719,7.9726563    c-1.8535156,2.168457-5.1728516,1.9335938-5.2871094,1.9291992H27.5935612    c0.4150391-1.1914063,1.5498047-2.0488281,2.8808594-2.0488281h5.060545c0.5527344,0,1-0.4477539,1-1s-0.4472656-1-1-1    c-3.3554688,0-6.084959-2.7299805-6.084959-6.0859375c0-3.3554688,2.7294903-6.0854492,6.084959-6.0854492    c0.5527344,0,1-0.4477539,1-1s-0.4472656-1-1-1c-4.4580059,0-8.084959,3.6269531-8.084959,8.0854492    c0,2.4391479,1.09021,4.6245117,2.8034058,6.1082764c-2.6797485,0.1185913-4.8278198,2.3179932-4.8278198,5.0264893    c0,0.5522461,0.4472656,1,1,1l16.1113262-0.003418c0.0332031,0.0029297,0.2138672,0.0166016,0.5009766,0.0166016    c1.2138672,0,4.3310547-0.2485352,6.3769531-2.6279297C51.2830124,52.5466576,51.7087936,49.2654076,50.6794968,44.9665794z" style="stroke: rgb(0, 0, 0); stroke-width: 1.54091px;"/>
          <path d="M21.9548893,18.074976c-0.4501953-0.3300781-1.0205078-0.559082-1.6816406-0.824707    c-1.4980469-0.6015625-3.5498047-1.4257803-5.149415-3.9628897c-0.3564453-0.5664063-0.4589844-1.3476563-0.2421875-1.8569336    c0.1220703-0.2875977,0.3349609-0.4536133,0.6689453-0.5229492c0.3574219-0.0742188,0.8544931,0.0390625,1.3769541,0.1591797    c0.4550781,0.1049805,0.9257813,0.2133789,1.4238281,0.2314453c1.1132813,0.0317383,2.3193359-0.1723633,3.3837891-0.5981445    c0.3681641-0.1469727,0.7480469-0.3066406,1.1386719-0.4707031c2.8261719-1.1879883,6.0263672-2.5317388,8.3632813-0.6274414    c2.1289043,1.7358398,2.5937481,6.5146475,1.3876934,8.815917c-0.3525391,0.671875-1.2705059,1.0415039-2.2343731,0.8974609    c-0.4804688-0.0717773-1.6279297-0.3911133-1.8916016-1.7983398c-0.2148438-1.1484375,0.328125-3.6723623,1.6699219-5.0136709    c0.390625-0.390625,0.390625-1.0234375,0-1.4140625s-1.0234375-0.390625-1.4140625,0    c-1.7607422,1.7607422-2.5703125,4.9355459-2.2207031,6.7958975c0.3417969,1.824707,1.7060547,3.1303711,3.5605469,3.4082031    c0.9187622,0.1381836,1.8114624,0.0066528,2.5682354-0.3404541c0.4596558,3.1169434,2.0059814,5.6445923,3.7188721,8.1407471    c4.9638672,7.2304707,8.5185547,13.3569355,5.4628906,20.8505878c-0.2089844,0.5112305,0.0371094,1.0947266,0.5478516,1.3032227    c0.1240234,0.0507813,0.2519531,0.074707,0.3779297,0.074707c0.3945313,0,0.7675781-0.2353516,0.9257813-0.6230469    c3.7050781-9.0874023-1.4902344-16.6557617-5.6660156-22.7373066c-1.8569336-2.7072144-3.513916-5.4293213-3.5117798-8.8833618    c1.4505005-3.131896,0.8504028-8.6882315-2.0175171-11.0263052c-3.2665997-2.6635747-7.3906231-0.9321294-10.4013653,0.3334961    c-0.3798828,0.1591797-0.75,0.3149414-1.1064453,0.4575195c-0.8125,0.324707-1.7265625,0.4824219-2.5693359,0.4560547    c-0.3076172-0.0107422-0.6669922-0.09375-1.046875-0.1811523c-0.6767578-0.1557617-1.4443369-0.3325195-2.2324228-0.168457    c-0.9765625,0.2021484-1.7236328,0.8056641-2.1025391,1.6982422c-0.46875,1.1020508-0.3125,2.5913086,0.390625,3.7060547    c1.9443359,3.08496,4.4423838,4.088378,6.0957041,4.7524405c0.5351563,0.2148438,0.9970703,0.4008789,1.2451172,0.5820313    c0.1425781,0.1044922,3.4667969,2.637207,0.6894531,8.9111328c-1.9462891,4.3945332-1.1484375,9.6132832-0.4453125,14.2172871    c0.1308594,0.855957,0.2597656,1.6967773,0.3681641,2.5136719c0.4716797,3.5664063-0.1806641,5.2138672-0.8105469,5.9682617    c-0.5214844,0.6245117-1.2724609,0.9516602-2.2470703,0.9990234h-1.0126953c-2.2255869,0-4.0371103,1.8110352-4.0371103,4.0366211    c0,0.5522461,0.4472656,1,1,1h8.0986338c0.5527344,0,1-0.4477539,1-1s-0.4472656-1-1-1h-6.8359385    c0.3505859-0.6181641,1.0146494-1.0366211,1.774415-1.0366211l1.0605469-0.0009766    c1.5898438-0.0756836,2.8457031-0.6533203,3.734375-1.7158203c1.2890625-1.5444336,1.7128906-4.0717773,1.2578125-7.5126953    c-0.1103516-0.8305664-0.2402344-1.6845703-0.3730469-2.5537109c-0.6953125-4.5449219-1.4130859-9.2451172,0.2958984-13.1054707    C26.0232487,23.2380619,23.7371159,19.3811283,21.9548893,18.074976z" style="stroke: rgb(0, 0, 0); stroke-width: 1.54091px;"/>
          <circle cx="25.4131165" cy="11.7959852" r="1.0122375" style="stroke: rgb(0, 0, 0); stroke-width: 1.54091px;"/>
        </g>
      </g>
      <g transform="matrix(0.12733, 0, 0, 0.12733, 163.223145, 224.921463)" style="">
        <title>Scientis</title>
        <g>
          <g>
            <g>
              <g>
                <path d="M285.996,469.595c-2.246,0-4.288-1.524-4.851-3.803l-27.143-110c-0.662-2.682,0.976-5.391,3.656-6.053       c2.682-0.664,5.391,0.976,6.053,3.656l27.143,110c0.661,2.682-0.976,5.391-3.656,6.053       C286.796,469.548,286.393,469.595,285.996,469.595z" style="stroke: rgb(0, 0, 0); stroke-width: 6.86104px;"/>
              </g>
              <g>
                <path d="M236.005,469.595c-0.337,0-0.679-0.034-1.022-0.105c-2.704-0.562-4.44-3.209-3.878-5.913l22.857-110       c0.562-2.703,3.202-4.443,5.913-3.878c2.703,0.562,4.439,3.209,3.878,5.913l-22.857,110       C240.405,467.972,238.325,469.595,236.005,469.595z" style="stroke: rgb(0, 0, 0); stroke-width: 6.86104px;"/>
              </g>
              <g>
                <path d="M226,389.594c-0.305,0-0.611-0.027-0.916-0.085c-1.542-0.287-2.859-1.281-3.559-2.685l-24.356-48.873       c-1.231-2.472-0.227-5.474,2.245-6.705c2.472-1.232,5.473-0.226,6.705,2.244l21.402,42.944l24.076-21.982l-33.458-33.028       c-1.965-1.94-1.985-5.106-0.045-7.071c1.939-1.966,5.105-1.985,7.071-0.046l37.206,36.729c0.976,0.964,1.513,2.285,1.486,3.656       c-0.026,1.37-0.615,2.67-1.628,3.595l-32.857,30C228.442,389.135,227.237,389.594,226,389.594z" style="stroke: rgb(0, 0, 0); stroke-width: 6.86104px;"/>
              </g>
              <g>
                <path d="M296,389.594c-1.131,0-2.242-0.384-3.142-1.11l-37.143-30c-1.104-0.891-1.776-2.209-1.852-3.625       c-0.075-1.416,0.455-2.797,1.458-3.8l34.684-34.686c1.951-1.953,5.119-1.953,7.07,0c1.953,1.952,1.953,5.118,0,7.07       l-30.752,30.754l27.555,22.256l16.084-40.077c1.029-2.562,3.939-3.808,6.503-2.778c2.563,1.029,3.807,3.94,2.778,6.503       l-18.604,46.355c-0.591,1.472-1.845,2.576-3.38,2.977C296.845,389.541,296.421,389.594,296,389.594z" style="stroke: rgb(0, 0, 0); stroke-width: 6.86104px;"/>
              </g>
              <g>
                <g>
                  <path d="M331.353,469.595c-0.858,0-1.728-0.222-2.522-0.687c-2.383-1.396-3.183-4.459-1.787-6.842l12.035-20.548        l-27.611-15.033c-1.636-0.891-2.642-2.617-2.608-4.479c0.032-1.862,1.097-3.553,2.763-4.385l31.73-15.865l-7.788-49.638        c-0.428-2.729,1.437-5.287,4.164-5.715c2.734-0.426,5.287,1.438,5.715,4.164l8.354,53.25c0.338,2.151-0.756,4.273-2.703,5.247        l-26.434,13.217l23.73,12.92c1.188,0.647,2.064,1.748,2.427,3.052s0.181,2.699-0.503,3.867l-14.643,25        C334.741,468.709,333.069,469.595,331.353,469.595z" style="stroke: rgb(0, 0, 0); stroke-width: 6.86104px;"/>
                </g>
                <g>
                  <path d="M186.359,469.595c-1.962,0-3.824-1.162-4.621-3.087l-10.357-25c-0.934-2.253-0.105-4.851,1.959-6.147l20.328-12.771        l-27.047-13.524c-1.947-0.974-3.041-3.095-2.704-5.246l8.354-53.313c0.428-2.729,2.992-4.588,5.714-4.165        c2.729,0.428,4.593,2.985,4.166,5.714l-7.789,49.701l31.73,15.865c1.616,0.808,2.67,2.424,2.758,4.229        s-0.805,3.516-2.334,4.477l-24.282,15.254l8.741,21.099c1.057,2.552-0.154,5.477-2.706,6.533        C187.646,469.473,186.997,469.595,186.359,469.595z" style="stroke: rgb(0, 0, 0); stroke-width: 6.86104px;"/>
                </g>
              </g>
              <g>
                <path d="M386,469.594c-2.762,0-5-2.238-5-5v-30c0-2.762,2.238-5,5-5s5,2.238,5,5v30C391,467.355,388.762,469.594,386,469.594z" style="stroke: rgb(0, 0, 0); stroke-width: 6.86104px;"/>
              </g>
              <g/>
            </g>
            <g>
              <path d="M220.856,214.138c-13.234,0-24-10.766-24-24s10.766-24,24-24s24,10.766,24,24S234.09,214.138,220.856,214.138z       M220.856,176.138c-7.72,0-14,6.28-14,14s6.28,14,14,14s14-6.28,14-14S228.576,176.138,220.856,176.138z" style="stroke: rgb(0, 0, 0); stroke-width: 6.86104px;"/>
            </g>
            <g>
              <path d="M296.856,214.138c-13.233,0-24-10.766-24-24s10.767-24,24-24s24,10.766,24,24S310.09,214.138,296.856,214.138z       M296.856,176.138c-7.72,0-14,6.28-14,14s6.28,14,14,14s14-6.28,14-14S304.576,176.138,296.856,176.138z" style="stroke: rgb(0, 0, 0); stroke-width: 6.86104px;"/>
            </g>
            <g>
              <path d="M277.856,195.138h-38c-2.761,0-5-2.239-5-5s2.239-5,5-5h38c2.762,0,5,2.239,5,5S280.618,195.138,277.856,195.138z" style="stroke: rgb(0, 0, 0); stroke-width: 6.86104px;"/>
            </g>
            <g>
              <path d="M290.529,250.028c-0.134,0-0.268-0.005-0.402-0.016c-24.398-1.941-33.861-11.029-34.86-12.059      c-1.922-1.982-1.874-5.148,0.108-7.07c1.967-1.906,5.099-1.875,7.026,0.063c0.242,0.229,8.105,7.474,28.519,9.098      c2.753,0.219,4.807,2.628,4.588,5.381C295.3,248.042,293.11,250.028,290.529,250.028z" style="stroke: rgb(0, 0, 0); stroke-width: 6.86104px;"/>
            </g>
            <g>
              <path d="M227.184,250.028c-2.582,0-4.771-1.986-4.979-4.604c-0.219-2.752,1.835-5.162,4.588-5.381      c20.638-1.642,28.448-9.028,28.524-9.103c1.924-1.983,5.064-2.005,7.045-0.083c1.982,1.922,2.006,5.113,0.084,7.095      c-0.999,1.03-10.461,10.118-34.86,12.06C227.451,250.022,227.317,250.028,227.184,250.028z" style="stroke: rgb(0, 0, 0); stroke-width: 6.86104px;"/>
            </g>
            <g>
              <path d="M265.19,277.472h-12.667c-2.761,0-5-2.238-5-5s2.239-5,5-5h12.667c2.762,0,5,2.238,5,5S267.952,277.472,265.19,277.472z      " style="stroke: rgb(0, 0, 0); stroke-width: 6.86104px;"/>
            </g>
            <g>
              <path d="M337.028,265.183c-0.946,0-1.897-0.057-2.852-0.172c-2.742-0.33-4.696-2.82-4.366-5.562s2.819-4.698,5.562-4.366      c5.813,0.695,11.501-2.336,14.142-7.557c2.922-5.775,9.718-8.487,15.811-6.303c1.126,0.401,2.024,0.012,2.462-0.256      c0.437-0.268,1.191-0.895,1.34-2.078l2.092-16.615c0.553-4.386,3.268-8.132,7.263-10.02c3.805-1.798,6.612-5.16,7.704-9.225      c1.094-4.07,0.347-8.394-2.049-11.861c-15.461-22.376-42.105-34.145-56.611-39.168c-2.609-0.904-3.992-3.751-3.089-6.361      s3.756-3.992,6.36-3.088c15.662,5.424,44.486,18.214,61.567,42.934c4.067,5.889,5.336,13.229,3.479,20.139      c-1.855,6.906-6.626,12.618-13.089,15.672c-0.888,0.419-1.491,1.253-1.614,2.229l-2.092,16.615      c-0.49,3.89-2.687,7.297-6.027,9.35s-7.373,2.473-11.067,1.15c-1.355-0.485-2.866,0.118-3.516,1.401      C354.34,260.144,345.973,265.183,337.028,265.183z" style="stroke: rgb(0, 0, 0); stroke-width: 6.86104px;"/>
            </g>
            <g>
              <path d="M177.109,265.191c-8.831,0-17.17-4.907-21.341-13.152c-0.65-1.284-2.16-1.888-3.515-1.402      c-3.691,1.323-7.725,0.904-11.066-1.147c-3.341-2.052-5.539-5.46-6.03-9.351l-2.092-16.616      c-0.123-0.976-0.726-1.808-1.615-2.228c-6.464-3.055-11.235-8.767-13.089-15.673c-1.856-6.911-0.588-14.25,3.48-20.139      c18.208-26.353,49.265-39.16,66.158-44.448c2.637-0.825,5.44,0.643,6.265,3.278c0.825,2.635-0.643,5.44-3.278,6.265      c-15.666,4.905-44.413,16.7-60.918,40.59c-2.396,3.467-3.143,7.791-2.05,11.86c1.091,4.065,3.899,7.428,7.704,9.226      c3.998,1.889,6.713,5.635,7.265,10.021l2.092,16.614c0.149,1.185,0.904,1.811,1.341,2.08c0.436,0.268,1.337,0.656,2.46,0.255      c6.093-2.186,12.889,0.527,15.811,6.302c3.069,6.068,10.014,9.034,16.518,7.049c2.64-0.805,5.436,0.681,6.242,3.322      c0.806,2.642-0.682,5.437-3.323,6.242C181.799,264.851,179.437,265.191,177.109,265.191z" style="stroke: rgb(0, 0, 0); stroke-width: 6.86104px;"/>
            </g>
            <g>
              <path d="M258.856,315.471c-48.155,0-87.333-39.178-87.333-87.333v-38c0-48.156,39.177-87.333,87.333-87.333      c48.156,0,87.334,39.177,87.334,87.333v38C346.19,276.293,307.013,315.471,258.856,315.471z M258.856,112.805      c-42.641,0-77.333,34.691-77.333,77.333v38c0,42.642,34.691,77.333,77.333,77.333c42.643,0,77.334-34.691,77.334-77.333v-38      C336.19,147.496,301.499,112.805,258.856,112.805z" style="stroke: rgb(0, 0, 0); stroke-width: 6.86104px;"/>
            </g>
            <g>
              <path d="M 441.714 469.594 L 134.284 469.594 C 135.154 467.997 135.939 466.451 136.61 464.99 C 137.438 463.188 138.15 461.386 138.767 459.594 L 436.559 459.594 C 434.714 429.196 416.684 389.305 393.788 379.492 L 340.062 356.467 C 315.015 345.733 293.249 334.713 280.56 308.483 C 279.358 305.997 280.398 303.006 282.883 301.804 C 285.371 300.601 288.359 301.642 289.562 304.127 C 300.766 327.287 320.009 336.993 344.001 347.275 L 397.727 370.3 C 429.27 383.819 446.714 434.635 446.714 464.593 C 446.714 467.355 444.476 469.594 441.714 469.594 Z M 119.987 370.301 L 173.713 347.276 C 192.807 339.093 216.853 317.244 226.175 305.269 C 226.309 305.097 226.737 304.589 227.191 304.058 C 227.557 303.629 227.944 303.179 228.099 302.985 C 229.749 300.77 232.859 300.342 235.073 301.993 C 237.287 303.643 237.722 306.806 236.072 309.019 C 235.925 309.217 235.348 309.906 234.797 310.551 C 234.478 310.924 234.172 311.28 234.047 311.436 C 223.84 324.547 198.547 347.513 177.653 356.467 L 123.927 379.492 C 123.311 379.756 122.699 380.042 122.091 380.348 C 119.836 377.957 117.156 375.467 114.406 373.158 C 116.214 372.077 118.075 371.121 119.987 370.301 Z" style="stroke: rgb(0, 0, 0); stroke-width: 6.86104px;"/>
            </g>
          </g>
        </g>
      </g>
    </g>
    <g transform="matrix(6.5, 0, 0, -6.5, -74, 627.25)" style="">
      <title>Instersection - Large</title>
      <path d="M 0 0.5 L 100 0.5 L 100 100.5 L 0 100.5 Z M 49.204 71.959 C 51.107 71.972 53.458 71.683 55.4 70.904 C 57.397 70.104 59.52 68.644 61.002 67.148 C 62.398 65.738 63.484 63.768 64.165 62.271 C 64.724 61.042 64.912 60.02 65.088 58.843 C 65.267 57.648 65.363 56.469 65.22 55.153 C 65.059 53.679 64.747 51.97 64.034 50.407 C 63.251 48.693 62.007 46.743 60.54 45.333 C 59.051 43.9 57.052 42.629 55.136 41.905 C 53.268 41.2 51.095 40.942 49.204 40.983 C 47.413 41.021 45.515 41.517 44.064 42.037 C 42.815 42.484 41.914 43.026 40.9 43.751 C 39.822 44.522 38.739 45.35 37.803 46.585 C 36.704 48.032 35.474 50.163 34.903 52.121 C 34.333 54.074 34.147 56.324 34.375 58.316 C 34.6 60.276 35.322 62.321 36.221 63.984 C 37.081 65.576 38.231 66.97 39.582 68.136 C 40.966 69.331 42.802 70.399 44.459 71.036 C 46.013 71.634 47.491 71.947 49.204 71.959 Z" style="visibility: hidden;" fill="none"/>
      <path d="M 50.184 22.196 C 50.244 22.205 50.305 22.211 50.365 22.223 C 50.845 22.318 51.282 22.61 51.554 23.017 C 51.724 23.271 51.83 23.567 51.86 23.872 C 51.866 23.933 51.866 23.994 51.869 24.055 L 51.869 41.122 C 50.959 41.006 50.053 40.965 49.204 40.983 C 48.85 40.991 48.491 41.016 48.133 41.056 L 48.133 24.055 C 48.136 23.994 48.136 23.933 48.142 23.872 C 48.196 23.326 48.503 22.809 48.963 22.502 C 49.217 22.332 49.513 22.226 49.818 22.196 C 49.939 22.184 50.062 22.19 50.184 22.196 Z" style="fill: url(#gradient-0-0); stroke: rgb(0, 0, 0); stroke-width: 0.615385px;"/>
      <path d="M 20.399 78.561 C 20.345 78.589 20.292 78.62 20.236 78.645 C 19.569 78.947 18.733 78.817 18.189 78.307 C 17.698 77.848 17.485 77.117 17.661 76.46 C 17.756 76.106 17.958 75.781 18.234 75.539 C 18.357 75.432 18.395 75.414 18.531 75.326 L 36.715 64.828 C 37.397 65.905 38.216 66.879 39.141 67.741 Z" style="paint-order: fill; stroke: rgb(0, 0, 0); stroke-width: 0.615385px; fill: url(#gradient-0-3);"/>
      <path d="M 81.47 75.326 C 81.607 75.414 81.645 75.432 81.768 75.539 C 82.317 76.021 82.545 76.838 82.305 77.544 C 82.109 78.123 81.61 78.59 81.02 78.748 C 80.607 78.859 80.156 78.822 79.765 78.645 C 79.71 78.62 79.657 78.589 79.602 78.561 L 60.565 67.57 C 60.716 67.43 60.862 67.289 61.002 67.148 C 61.733 66.41 62.379 65.517 62.927 64.62 Z" style="paint-order: fill; stroke: rgb(0, 0, 0); stroke-width: 0.615385px; fill: url(#gradient-0-4);"/>
    </g>
    <title>Mini-thing 2</title>
  </g>
</svg>